<svg width="41" height="46" viewBox="0 0 41 46" fill="none" xmlns="http://www.w3.org/2000/svg">
<path fill-rule="evenodd" clip-rule="evenodd" d="M6 0.0869751L13.0078 6.7211L0 6.71344V38.9007H34V26.594L41 33.2208V0.0869751H6ZM33.6924 25.8153L13.8226 7.00493H33.6924V25.8153ZM27.5231 34.1925H5.38008V12.5449H6.9453V32.7267H27.5231V34.1925ZM9.7959 44.8829L8.9707 43.1861H8.28955L9.48584 45.4322V46.7408H10.1035V45.4322L11.2998 43.1861H10.6211L9.7959 44.8829ZM12.8379 43.1861H12.9844L14.3271 46.7408H13.6826L13.395 45.9083H12.0189L11.7319 46.7408H11.0898L12.4277 43.1861H12.5718H12.8379ZM12.1864 45.4224H13.2271L12.7062 43.9144L12.1864 45.4224ZM16.4821 44.8335C16.4553 44.7994 16.4295 44.7662 16.4048 44.7339C16.3136 44.6135 16.2428 44.4971 16.1924 44.3848C16.1419 44.2709 16.1167 44.1537 16.1167 44.0333C16.1167 43.8477 16.1549 43.6882 16.2314 43.5547C16.3079 43.4213 16.4162 43.3187 16.5562 43.2471C16.6961 43.1739 16.8597 43.1373 17.0469 43.1373C17.2275 43.1373 17.383 43.1739 17.5132 43.2471C17.645 43.3187 17.7459 43.414 17.8159 43.5328C17.8875 43.6516 17.9233 43.7818 17.9233 43.9234C17.9233 44.0357 17.903 44.1382 17.8623 44.231C17.8216 44.3238 17.7655 44.4084 17.6938 44.4849C17.6222 44.5614 17.5392 44.6339 17.4448 44.7022L17.1979 44.8819L17.9018 45.7127C17.925 45.667 17.946 45.6191 17.9648 45.5689C18.0251 45.4127 18.0552 45.2393 18.0552 45.0489H18.563C18.563 45.2214 18.5459 45.385 18.5117 45.5396C18.4792 45.6942 18.4263 45.8375 18.353 45.9693C18.3233 46.024 18.2897 46.0763 18.2522 46.1262L18.7729 46.7408H18.0918L17.8852 46.4978C17.7734 46.5826 17.6518 46.649 17.5205 46.6968C17.348 46.7587 17.1641 46.7896 16.9688 46.7896C16.7327 46.7896 16.5285 46.7465 16.356 46.6602C16.1834 46.574 16.05 46.4551 15.9556 46.3038C15.8628 46.1524 15.8164 45.9791 15.8164 45.7838C15.8164 45.6389 15.8465 45.5119 15.9067 45.4029C15.967 45.2922 16.0492 45.1897 16.1533 45.0953C16.2495 45.008 16.3591 44.9207 16.4821 44.8335ZM16.7738 45.1906L16.7002 45.2442C16.6139 45.3142 16.5496 45.3817 16.5073 45.4468C16.4666 45.5103 16.4398 45.5689 16.4268 45.6226C16.4137 45.6763 16.4072 45.7235 16.4072 45.7642C16.4072 45.8684 16.4292 45.9628 16.4731 46.0474C16.5187 46.1321 16.5846 46.1996 16.6709 46.2501C16.7588 46.2989 16.8654 46.3233 16.9907 46.3233C17.1258 46.3233 17.2568 46.2932 17.3838 46.233C17.4474 46.202 17.5078 46.1646 17.5648 46.121L16.7738 45.1906ZM16.9143 44.5414L17.1323 44.3946C17.2349 44.3262 17.3081 44.2595 17.3521 44.1944C17.396 44.1277 17.418 44.0447 17.418 43.9454C17.418 43.8607 17.3854 43.7826 17.3203 43.711C17.2552 43.6394 17.1632 43.6036 17.0444 43.6036C16.9614 43.6036 16.8914 43.6231 16.8345 43.6622C16.7775 43.6996 16.7344 43.7501 16.7051 43.8135C16.6774 43.8754 16.6636 43.9446 16.6636 44.0211C16.6636 44.0943 16.6823 44.17 16.7197 44.2481C16.7572 44.3246 16.8084 44.4052 16.8735 44.4898C16.8868 44.5067 16.9004 44.5239 16.9143 44.5414ZM23.1333 45.5836H22.5229C22.505 45.7382 22.4676 45.8692 22.4106 45.9766C22.3553 46.0824 22.2731 46.163 22.1641 46.2183C22.0566 46.2737 21.9159 46.3013 21.7417 46.3013C21.5985 46.3013 21.4756 46.2728 21.373 46.2159C21.2705 46.1589 21.1859 46.0784 21.1191 45.9742C21.054 45.87 21.0052 45.7455 20.9727 45.6006C20.9417 45.4542 20.9263 45.2914 20.9263 45.1124V44.8121C20.9263 44.6233 20.9434 44.4556 20.9775 44.3091C21.0133 44.161 21.0662 44.0365 21.1362 43.9356C21.2062 43.8347 21.2933 43.7582 21.3975 43.7061C21.5016 43.654 21.6237 43.628 21.7637 43.628C21.9346 43.628 22.0729 43.6573 22.1787 43.7159C22.2845 43.7728 22.3643 43.8559 22.418 43.9649C22.4733 44.074 22.5091 44.205 22.5254 44.358H23.1357C23.1113 44.1203 23.0446 43.9096 22.9355 43.7256C22.8281 43.5417 22.6768 43.3977 22.4814 43.2935C22.2861 43.1894 22.0469 43.1373 21.7637 43.1373C21.5407 43.1373 21.3397 43.1763 21.1606 43.2545C20.9832 43.3326 20.8311 43.4457 20.7041 43.5938C20.5771 43.7403 20.4795 43.9169 20.4111 44.1236C20.3444 44.3303 20.311 44.5614 20.311 44.817V45.1124C20.311 45.3679 20.3436 45.599 20.4087 45.8057C20.4754 46.0124 20.5715 46.189 20.6968 46.3355C20.8221 46.4804 20.9727 46.5927 21.1484 46.6724C21.3242 46.7505 21.522 46.7896 21.7417 46.7896C22.0282 46.7896 22.2715 46.7375 22.4717 46.6334C22.6719 46.5292 22.8273 46.3868 22.938 46.2061C23.0487 46.0238 23.1138 45.8163 23.1333 45.5836ZM26.5244 45.0611V44.8658C26.5244 44.5972 26.4886 44.3572 26.417 44.1456C26.347 43.9324 26.2469 43.7509 26.1167 43.6011C25.9865 43.4498 25.8311 43.335 25.6504 43.2569C25.4697 43.1771 25.2695 43.1373 25.0498 43.1373C24.8317 43.1373 24.6323 43.1771 24.4517 43.2569C24.2726 43.335 24.1172 43.4498 23.9854 43.6011C23.8551 43.7509 23.7542 43.9324 23.6826 44.1456C23.611 44.3572 23.5752 44.5972 23.5752 44.8658V45.0611C23.5752 45.3297 23.611 45.5705 23.6826 45.7838C23.7559 45.997 23.8584 46.1784 23.9902 46.3282C24.1221 46.4779 24.2775 46.5927 24.4565 46.6724C24.6372 46.7505 24.8366 46.7896 25.0547 46.7896C25.2744 46.7896 25.4746 46.7505 25.6553 46.6724C25.8359 46.5927 25.9906 46.4779 26.1191 46.3282C26.2493 46.1784 26.3494 45.997 26.4194 45.7838C26.4894 45.5705 26.5244 45.3297 26.5244 45.0611ZM25.9116 44.8609V45.0611C25.9116 45.2597 25.8921 45.4354 25.853 45.5884C25.8156 45.7414 25.7603 45.8708 25.687 45.9766C25.6138 46.0808 25.5243 46.1597 25.4185 46.2134C25.3127 46.2655 25.1914 46.2916 25.0547 46.2916C24.9196 46.2916 24.7992 46.2655 24.6934 46.2134C24.5876 46.1597 24.4964 46.0808 24.4199 45.9766C24.3451 45.8708 24.2881 45.7414 24.249 45.5884C24.21 45.4354 24.1904 45.2597 24.1904 45.0611V44.8609C24.1904 44.6623 24.21 44.4874 24.249 44.336C24.2881 44.183 24.3442 44.0552 24.4175 43.9527C24.4923 43.8485 24.5827 43.7704 24.6885 43.7183C24.7943 43.6646 24.9147 43.6378 25.0498 43.6378C25.1849 43.6378 25.3062 43.6646 25.4136 43.7183C25.521 43.7704 25.6113 43.8485 25.6846 43.9527C25.7594 44.0552 25.8156 44.183 25.853 44.336C25.8921 44.4874 25.9116 44.6623 25.9116 44.8609Z" fill="#AFB1B8"/>
</svg>
